# xmcd CD database file
#
# Track frame offsets:
#	150
#	18755
#	42442
#
# Disc length: 811 seconds
#
# Revision: 1
# Processed by: cddbd v1.5PL3 Copyright (c) Steve Scherf et al.
# Submitted via: CDex 1.50Beta7
#
DISCID=19032903
DTITLE=コルベッツ - 瞳を僕に近づけて
DYEAR=1993
DGENRE=JPop
TTITLE0=瞳を僕に近づけて
TTITLE1=もう２度と離さない
TTITLE2=カラオケ
EXTD=YEAR: 1993
EXTT0=
EXTT1=
EXTT2=
PLAYORDER=
